<?xml version="1.0" standalone="no"?>
<!DOCTYPE svg PUBLIC "-//W3C//DTD SVG 20010904//EN"
 "http://www.w3.org/TR/2001/REC-SVG-20010904/DTD/svg10.dtd">
<svg version="1.0" xmlns="http://www.w3.org/2000/svg"
 width="349.000000pt" height="286.000000pt" viewBox="0 0 349.000000 286.000000"
 preserveAspectRatio="xMidYMid meet">

<g transform="translate(0.000000,286.000000) scale(0.100000,-0.100000)"
fill="#000000" stroke="none">
<path d="M92 2843 c-18 -9 -45 -32 -60 -51 l-27 -35 -3 -1281 c-1 -705 0
-1296 3 -1314 8 -41 58 -99 103 -117 30 -13 257 -15 1624 -15 1567 0 1589 0
1628 20 21 11 51 36 67 57 l28 36 3 1289 c2 1252 2 1289 -17 1326 -23 45 -56
77 -94 91 -20 8 -518 11 -1625 11 -1458 0 -1600 -2 -1630 -17z m1788 -425 c0
-7 -3 -23 -6 -35 -6 -21 -12 -23 -80 -23 -40 0 -75 -3 -78 -8 -2 -4 -7 -24
-11 -45 l-7 -37 72 0 71 0 -3 -32 -3 -33 -72 -5 c-39 -3 -73 -7 -76 -10 -3 -3
-8 -24 -12 -47 l-7 -43 84 0 84 0 104 73 c58 40 122 83 143 96 l38 23 81 -80
c70 -69 80 -82 69 -96 -29 -35 -51 -30 -105 23 l-51 50 -32 -20 c-18 -12 -33
-24 -33 -28 0 -4 20 -27 45 -51 25 -24 45 -47 45 -50 0 -3 -13 -13 -28 -22
-29 -17 -29 -17 -72 27 -24 25 -50 45 -56 45 -17 0 -73 -33 -78 -46 -2 -6 19
-35 48 -63 58 -57 39 -51 319 -106 l87 -18 0 -113 c0 -106 -1 -114 -19 -114
-46 0 -51 9 -51 85 0 78 -5 84 -67 85 -22 0 -23 -4 -23 -66 l0 -65 -32 3 -33
3 -3 72 -3 72 -42 9 c-64 13 -67 9 -67 -76 0 -74 1 -77 50 -149 28 -40 50 -76
50 -79 0 -3 13 -24 29 -47 15 -23 34 -53 41 -66 12 -23 12 -23 -10 -8 -12 8
-28 13 -36 10 -7 -3 -25 9 -39 26 -29 34 -41 32 -87 -9 -19 -17 -37 -26 -49
-23 -26 7 -25 12 21 63 22 25 40 48 40 53 0 10 -51 87 -58 87 -3 0 -30 -24
-61 -52 -53 -50 -79 -97 -82 -143 0 -11 -3 -14 -6 -7 -4 10 -8 10 -19 1 -11
-9 -14 -8 -14 5 0 10 -5 14 -11 10 -7 -4 -10 3 -9 17 4 49 4 49 -81 49 -74 0
-85 -3 -141 -36 -34 -19 -67 -33 -74 -30 -8 3 -11 0 -8 -8 3 -9 -5 -13 -26
-14 -26 -1 -31 3 -26 16 5 15 5 15 -8 0 -7 -10 -19 -18 -26 -18 -9 0 -8 6 4
19 16 18 15 21 -34 67 l-51 49 22 18 c23 19 23 19 72 -32 27 -28 54 -51 60
-51 7 0 29 15 50 33 l38 32 -63 62 -63 62 -95 16 c-52 10 -117 21 -145 26
-104 18 -95 5 -95 134 0 113 0 115 23 115 38 0 47 -19 47 -97 0 -55 3 -73 14
-73 7 0 28 -3 45 -6 l31 -6 0 71 0 72 28 -3 c26 -3 27 -5 30 -75 3 -70 3 -72
34 -82 17 -6 42 -11 54 -11 23 0 24 3 24 83 l0 83 -86 125 c-125 179 -123 156
-26 251 l82 81 21 -27 c21 -26 21 -27 3 -48 -11 -12 -35 -37 -54 -55 l-35 -33
19 -35 c11 -19 24 -35 31 -35 6 0 29 18 50 40 45 47 61 50 77 15 11 -24 8 -30
-37 -75 l-48 -49 26 -41 c15 -22 31 -40 35 -40 5 0 31 24 59 54 43 45 53 63
63 112 6 33 18 89 26 126 7 37 14 76 14 87 0 11 4 31 10 45 9 26 10 26 125 26
85 0 115 -3 115 -12z m-610 -1020 c0 -4 -4 -8 -10 -8 -5 0 -10 5 -10 11 0 6
-6 9 -13 6 -7 -2 -26 6 -42 20 -30 23 -30 24 -10 39 19 14 22 13 53 -22 17
-21 32 -41 32 -46z m900 -9 c0 -6 -4 -7 -10 -4 -5 3 -10 11 -10 16 0 6 5 7 10
4 6 -3 10 -11 10 -16z m-1053 -443 c-4 -9 -18 -16 -32 -16 -18 0 -25 -5 -25
-20 0 -11 7 -20 15 -20 8 0 15 -7 15 -15 0 -8 -4 -15 -9 -15 -15 0 -42 -31
-36 -41 4 -5 19 -9 36 -9 16 0 29 -4 29 -9 0 -19 -31 -32 -72 -29 l-43 3 0 95
0 95 55 5 c60 6 76 0 67 -24z m272 23 c39 -14 46 -60 13 -86 -16 -11 -15 -15
6 -52 22 -39 22 -40 3 -51 -28 -14 -28 -14 -53 33 l-23 42 -3 -30 c-3 -30 -25
-55 -48 -55 -9 0 -11 21 -7 80 4 58 3 80 -6 80 -8 0 -9 5 -1 19 9 17 22 22 76
30 6 0 25 -4 43 -10z m169 -55 c12 -8 22 -24 22 -34 0 -21 -36 -50 -62 -50
-10 0 -18 -4 -18 -10 0 -5 16 -10 35 -10 44 0 48 -26 5 -35 -91 -20 -134 100
-50 142 32 16 41 16 68 -3z m153 5 c24 -13 16 -29 -15 -29 -30 0 -48 -22 -44
-52 2 -18 10 -24 36 -26 34 -3 39 -11 20 -30 -18 -18 -52 -14 -82 9 -38 30
-36 79 5 113 33 28 50 32 80 15z m172 -20 c25 -31 21 -66 -12 -100 -36 -36
-73 -37 -106 -4 -36 35 -33 76 7 110 37 31 82 29 111 -6z m295 15 c12 -8 22
-24 22 -34 0 -21 -36 -50 -62 -50 -10 0 -18 -4 -18 -10 0 -5 16 -10 35 -10 39
0 46 -14 14 -30 -24 -14 -73 -5 -90 17 -23 27 -16 83 15 109 32 28 53 30 84 8z
m188 4 c18 3 23 -4 29 -35 l7 -38 19 38 c13 24 26 37 40 37 24 0 23 -4 -26
-117 -24 -56 -39 -78 -52 -78 -16 0 -21 14 -12 40 2 6 -3 38 -11 72 -13 59
-15 62 -39 56 -36 -8 -40 -14 -49 -63 -5 -31 -13 -45 -30 -51 -25 -10 -26 -2
-16 88 l7 52 46 3 c25 2 51 1 56 -2 6 -2 20 -3 31 -2z m-1126 -5 c-1 -5 -7
-19 -15 -33 -19 -33 -19 -60 0 -60 18 0 19 -12 3 -28 -16 -16 -88 -16 -88 1 0
6 7 25 15 41 19 35 19 46 1 46 -18 0 -29 16 -21 30 7 11 105 14 105 3z m720
-2 c0 -5 5 -22 11 -38 l11 -28 15 38 c10 24 22 37 34 37 26 0 24 -20 -8 -85
-21 -43 -32 -55 -50 -55 -27 0 -37 21 -48 93 -7 43 -6 47 14 47 11 0 21 -4 21
-9z"/>
<path d="M1547 1952 l-67 -68 0 -100 0 -100 70 -69 70 -70 94 -2 93 -3 77 78
76 77 0 89 0 88 -72 74 -71 74 -101 0 -102 0 -67 -68z"/>
<path d="M1340 921 c-14 -27 -13 -31 9 -31 20 0 35 25 25 41 -9 15 -23 10 -34
-10z"/>
<path d="M1505 879 c-4 -6 -5 -12 -2 -15 7 -7 37 7 37 17 0 13 -27 11 -35 -2z"/>
<path d="M1794 876 c-11 -29 1 -61 23 -64 24 -4 38 25 28 58 -7 23 -43 27 -51
6z"/>
<path d="M2116 875 c-6 -16 3 -19 28 -9 9 3 13 10 10 15 -8 14 -31 11 -38 -6z"/>
</g>
</svg>
